<?xml version="1.0" encoding="utf-8"?>
<!-- Generator: Adobe Illustrator 24.1.1, SVG Export Plug-In . SVG Version: 6.00 Build 0)  -->
<svg version="1.1" xmlns="http://www.w3.org/2000/svg" xmlns:xlink="http://www.w3.org/1999/xlink" x="0px" y="0px"
	 viewBox="0 0 128 128" style="enable-background:new 0 0 128 128;" xml:space="preserve">
<style type="text/css">
	.st0{fill:#FFFFFF;}
	.st1{fill-opacity:0.4;}
	.st2{fill:none;stroke:#000000;stroke-width:4;stroke-linecap:round;stroke-linejoin:round;stroke-miterlimit:10;}
	.st3{stroke:#000000;stroke-miterlimit:10;}
</style>
<g id="Layer_1">
	<path class="st0" d="M16,0C7.1,0,0,7.1,0,16v96c0,8.9,7.1,16,16,16h96c8.9,0,16-7.1,16-16V16c0-8.9-7.1-16-16-16H16z"/>
	<path class="st1" d="M16,0C7.1,0,0,7.1,0,16v96c0,8.9,7.1,16,16,16h96c8.9,0,16-7.1,16-16V16c0-8.9-7.1-16-16-16H16z M16,4h96
		c6.6,0,12,5.4,12,12v96c0,6.6-5.3,12-12,12H16c-6.6,0-12-5.3-12-12V16C4,9.3,9.4,4,16,4z"/>
</g>
<g id="Layer_2">
	<g>
		<path class="st2" d="M84.8,54.6c-0.3-5.2-3.7-10.3-8.2-13c-4.5-2.6-9.9-3.4-15.2-3.3c-4,0.1-8,0.7-11.7,2.1
			c-11.8,4.4-20.1,16.8-19.5,29.4c0.4,8.4,5,17,12.8,19.9c6.7,2.5,13.1,1.7,20-0.4c3.1-0.9,8.1-3.2,10.5-5.3
			c3.1-2.7,5.7-6.4,6.7-9.5"/>
		<path class="st2" d="M84.8,51.1c4.6-3.2,9.4-6.1,14.5-8.6c2.7-1.3,5.7-2.6,8.7-1.9c1,0.3,2,0.8,2.6,1.7c0.5,0.7,0.7,1.5,0.8,2.3
			c0.9,5.7-0.8,11.4-3.1,16.7c-2,4.5-4.5,8.8-8.1,12c-3.7,3.2-8.8,5.1-13.5,4.1c-2.3-0.5-4.6-1.8-5.8-3.8"/>
		<path class="st2" d="M40.7,45.5c-2.8-3.1-6.8-9.8-11.3-10.5c-4.9-0.8-6.9,5.6-7.9,9.2c-2.1,7.5-3.4,23.9,7,26"/>
		<path class="st3" d="M39.9,66.1c0.7-0.5,0.9-1.3,1-2c0.2-1.3,0.1-2.9-1.4-3.3c-2.6-0.8-3,3.1-2.7,4.3
			C37.1,66.1,38.7,66.8,39.9,66.1z"/>
		<path class="st3" d="M61.2,67.6c0.8,0.8,2.3,0.9,3.3-0.1c0.3-0.3,0.6-1.3,0.6-2.5c0-1.2-0.7-2.7-2.1-3c-1.8-0.4-2.6,2.9-2.4,4.4
			C60.7,66.9,60.9,67.3,61.2,67.6z"/>
		<path class="st2" d="M47.6,68.8c1.2,0.5,2.4,0.8,3.6,1"/>
	</g>
</g>
</svg>
